#!OML:ASF X:\für Bonn\!DataBase\2005_08_11_Bastian_Final\c3d\Bastian.ASF
:FULLY-SPECIFIED
:DEGREES
78
root 24.4634 17.3142 -2.59997 358.526 -74.2739 -10.1562
lowerback 30.3251 -1.13862 10.458
upperback 17.5698 -0.722734 4.30558
thorax 3.61544 -0.55705 -0.870914
lowerneck -0.306878 -7.83619 -2.85749
upperneck 4.75727 -10.7245 6.89223
head 2.15265 -5.2615 2.45111
rclavicle -4.13472e-014 1.59028e-014
rhumerus 8.8876 16.4135 -69.2776
rradius 24.2829
rwrist -0.744509
rhand -22.8439 -1.19203
rfingers 7.12502
rthumb 3.59385 -31.1415
lclavicle -4.13472e-014 1.59028e-014
lhumerus -12.6221 -15.1341 90.1523
lradius 23.6066
lwrist 17.4762
lhand -12.238 -7.01253
lfingers 7.12502
lthumb 13.8276 22.5079
rfemur -12.9814 -3.49364 25.021
rtibia 35.3559
rfoot -4.68253 -7.14954
rtoes -0.13143
lfemur -11.433 2.21658 -15.5701
ltibia 41.6699
lfoot -8.1707 -11.0764
ltoes -23.5954
79
root 24.448 17.3059 -2.60558 358.844 -74.2067 -10.3912
lowerback 31.0905 -1.21294 10.8765
upperback 17.6929 -0.667641 4.39433
thorax 3.49062 -0.52561 -0.984561
lowerneck -0.476904 -7.9308 -2.89871
upperneck 4.39751 -10.8277 6.98521
head 2.07931 -5.3138 2.48354
rclavicle 7.95139e-016 1.90833e-014
rhumerus 9.8145 16.2731 -68.7175
rradius 24.0689
rwrist -0.587971
rhand -22.9837 -1.29627
rfingers 7.12502
rthumb 3.45883 -31.248
lclavicle 7.95139e-016 1.90833e-014
lhumerus -12.4844 -15.4807 90.2017
lradius 24.2249
lwrist 17.8362
lhand -12.2592 -7.18918
lfingers 7.12502
lthumb 13.8072 22.3326
rfemur -13.1841 -3.62744 25.1313
rtibia 35.6266
rfoot -4.76257 -7.1127
rtoes -0.00369398
lfemur -11.9013 2.43251 -15.6239
ltibia 40.7703
lfoot -7.90599 -10.8027
ltoes -23.2145
80
root 24.4325 17.2992 -2.61074 358.939 -74.1518 -10.3937
lowerback 31.8384 -1.26911 11.2592
upperback 17.8291 -0.596826 4.46641
thorax 3.3936 -0.486698 -1.10077
lowerneck -0.665784 -8.05563 -2.91742
upperneck 4.01358 -10.9694 7.0652
head 2.00143 -5.38544 2.50608
rclavicle -2.06736e-014 1.59028e-015
rhumerus 10.7275 15.9285 -68.2137
rradius 23.82
rwrist -0.204722
rhand -23.0951 -1.37945
rfingers 7.12502
rthumb 3.35122 -31.3329
lclavicle -2.06736e-014 1.59028e-015
lhumerus -12.3501 -15.7916 90.2569
lradius 24.9078
lwrist 18.0854
lhand -12.3144 -7.34802
lfingers 7.12502
lthumb 13.754 22.1774
rfemur -13.3684 -3.76455 25.168
rtibia 35.8547
rfoot -4.81316 -7.06658
rtoes 0.447611
lfemur -12.3661 2.64119 -15.7606
ltibia 39.9219
lfoot -7.64751 -10.484
ltoes -23.212
81
root 24.4174 17.2933 -2.61589 359.042 -74.0711 -10.4051
lowerback 32.5877 -1.35035 11.6519
upperback 17.9628 -0.548638 4.52654
thorax 3.29964 -0.457762 -1.22764
lowerneck -0.839697 -8.16162 -2.92431
upperneck 3.62186 -11.0881 7.1791
head 1.91905 -5.44593 2.53933
rclavicle 2.8625e-014 -1.59028e-014
rhumerus 11.6452 15.627 -67.7179
rradius 23.5623
rwrist 0.0158865
rhand -23.2628 -1.39739
rfingers 7.12502
rthumb 3.18935 -31.3533
lclavicle 2.8625e-014 -1.59028e-014
lhumerus -12.2249 -16.1635 90.259
lradius 25.6479
lwrist 18.339
lhand -12.3221 -7.57214
lfingers 7.12502
lthumb 13.7466 21.9538
rfemur -13.5221 -3.89716 25.2042
rtibia 36.0474
rfoot -4.85613 -7.02629
rtoes 0.800242
lfemur -12.8278 2.83226 -15.8977
ltibia 39.1166
lfoot -7.39562 -10.1448
ltoes -23.3125
82
root 24.4028 17.2893 -2.62045 359.102 -74.0158 -10.3822
lowerback 33.3449 -1.42176 12.0548
upperback 18.0942 -0.478442 4.57861
thorax 3.21021 -0.416549 -1.37224
lowerneck -0.962272 -8.28617 -2.88371
upperneck 3.18478 -11.2284 7.25258
head 1.80823 -5.51955 2.55355
rclavicle 5.40694e-014 3.33958e-014
rhumerus 12.5526 15.2545 -67.2316
rradius 23.2868
rwrist 0.293757
rhand -23.438 -1.49885
rfingers 7.12502
rthumb 3.02014 -31.4572
lclavicle 5.40694e-014 3.33958e-014
lhumerus -12.1078 -16.5923 90.2801
lradius 26.3846
lwrist 18.5557
lhand -12.3762 -7.81985
lfingers 7.12502
lthumb 13.6945 21.7096
rfemur -13.669 -4.05247 25.2279
rtibia 36.2275
rfoot -4.88594 -6.96133
rtoes 1.13654
lfemur -13.2566 3.05121 -16.0488
ltibia 38.3443
lfoot -7.1396 -9.80915
ltoes -23.2629
83
root 24.3888 17.2851 -2.62469 359.149 -73.9619 -10.3475
lowerback 34.1035 -1.49394 12.4491
upperback 18.2297 -0.407215 4.63175
thorax 3.13261 -0.375619 -1.51041
lowerneck -1.10813 -8.40308 -2.81797
upperneck 2.73518 -11.359 7.33609
head 1.69633 -5.5885 2.56655
rclavicle -6.67916e-014 -5.40694e-014
rhumerus 13.5313 14.9419 -66.689
rradius 22.98
rwrist 0.433047
rhand -23.5979 -1.58841
rfingers 7.12502
rthumb 2.86567 -31.5489
lclavicle -6.67916e-014 -5.40694e-014
lhumerus -11.9766 -17.026 90.2741
lradius 27.1575
lwrist 18.7575
lhand -12.3696 -8.05601
lfingers 7.12502
lthumb 13.7009 21.473
rfemur -13.8035 -4.21857 25.2462
rtibia 36.383
rfoot -4.89047 -6.86989
rtoes 1.33064
lfemur -13.67 3.25469 -16.2013
ltibia 37.6089
lfoot -6.89204 -9.4679
ltoes -23.0592
84
root 24.3761 17.2811 -2.62849 359.238 -73.8945 -10.3256
lowerback 34.841 -1.58867 12.8734
upperback 18.3454 -0.346995 4.66089
thorax 3.0485 -0.335527 -1.68492
lowerneck -1.19543 -8.5144 -2.74512
upperneck 2.2751 -11.484 7.45786
head 1.57317 -5.65626 2.59422
rclavicle 5.88403e-014 -1.11319e-014
rhumerus 14.507 14.683 -66.1381
rradius 22.6749
rwrist 0.405734
rhand -23.7291 -1.72948
rfingers 7.12502
rthumb 2.73902 -31.6916
lclavicle 5.88403e-014 -1.11319e-014
lhumerus -11.8706 -17.423 90.236
lradius 27.9362
lwrist 18.858
lhand -12.3793 -8.30755
lfingers 7.12502
lthumb 13.6915 21.2221
rfemur -13.9659 -4.38153 25.2647
rtibia 36.532
rfoot -4.89299 -6.79403
rtoes 1.86962
lfemur -14.1013 3.47757 -16.3639
ltibia 36.9147
lfoot -6.72669 -9.13495
ltoes -23.4121
85
root 24.3629 17.2781 -2.63215 359.182 -73.8526 -10.1844
lowerback 35.6036 -1.6604 13.2202
upperback 18.4744 -0.276615 4.72627
thorax 2.97498 -0.300275 -1.78376
lowerneck -1.24253 -8.62134 -2.7249
upperneck 1.73629 -11.5975 7.57108
head 1.4203 -5.7222 2.6324
rclavicle 3.02153e-014 2.06736e-014
rhumerus 15.4956 14.5331 -65.4674
rradius 22.381
rwrist 0.250967
rhand -23.8001 -1.80495
rfingers 7.12502
rthumb 2.6704 -31.768
lclavicle 3.02153e-014 2.06736e-014
lhumerus -11.7745 -17.8169 90.2544
lradius 28.7884
lwrist 18.9204
lhand -12.426 -8.45472
lfingers 7.12502
lthumb 13.6465 21.0779
rfemur -14.0916 -4.55415 25.2445
rtibia 36.669
rfoot -4.88731 -6.70322
rtoes 2.03533
lfemur -14.4742 3.72378 -16.556
ltibia 36.2599
lfoot -6.56244 -8.83844
ltoes -23.2244
86
root 24.351 17.2742 -2.63544 359.259 -73.8289 -10.1661
lowerback 36.3687 -1.73858 13.6138
upperback 18.5853 -0.191312 4.79489
thorax 2.8931 -0.255068 -1.90492
lowerneck -1.2095 -8.72585 -2.74863
upperneck 1.1552 -11.7063 7.72553
head 1.24629 -5.78895 2.69712
rclavicle 5.24792e-014 -2.8625e-014
rhumerus 16.44 14.287 -64.8038
rradius 22.1609
rwrist 0.171658
rhand -23.8369 -1.96307
rfingers 7.12502
rthumb 2.63491 -31.9265
lclavicle 5.24792e-014 -2.8625e-014
lhumerus -11.6803 -18.2755 90.2728
lradius 29.6442
lwrist 19.0065
lhand -12.4357 -8.62831
lfingers 7.12502
lthumb 13.6371 20.905
rfemur -14.2373 -4.72455 25.2642
rtibia 36.8109
rfoot -4.8906 -6.58933
rtoes 2.35505
lfemur -14.8376 3.93801 -16.7078
ltibia 35.6542
lfoot -6.45403 -8.5507
ltoes -23.0842
87
root 24.3406 17.2705 -2.63762 359.394 -73.7933 -10.2286
lowerback 37.1484 -1.85319 14.0762
upperback 18.6976 -0.122304 4.82304
thorax 2.82016 -0.209662 -2.09579
lowerneck -1.19883 -8.82117 -2.69836
upperneck 0.601884 -11.8057 7.89877
head 1.0817 -5.85043 2.75486
rclavicle -1.59028e-014 -2.70347e-014
rhumerus 17.3766 14.0286 -64.1678
rradius 21.9448
rwrist 0.00388669
rhand -23.8801 -2.06957
rfingers 7.12502
rthumb 2.59312 -32.0335
lclavicle -1.59028e-014 -2.70347e-014
lhumerus -11.5804 -18.7602 90.2346
lradius 30.5014
lwrist 19.0249
lhand -12.5054 -8.77004
lfingers 7.12502
lthumb 13.5699 20.7677
rfemur -14.368 -4.90134 25.2955
rtibia 36.9492
rfoot -4.91997 -6.4585
rtoes 2.57753
lfemur -15.1543 4.10967 -16.8246
ltibia 35.1034
lfoot -6.42727 -8.27202
ltoes -22.7699
88
root 24.3303 17.266 -2.64021 359.391 -73.7911 -10.1114
lowerback 38.0229 -1.96507 14.4509
upperback 18.6952 -0.0372827 4.83455
thorax 2.7478 -0.173431 -2.20641
lowerneck -1.2221 -8.9141 -2.67893
upperneck 0.0697175 -11.901 8.00314
head 0.927077 -5.91011 2.79416
rclavicle 6.04305e-014 6.67916e-014
rhumerus 18.2961 13.9164 -63.4215
rradius 21.8153
rwrist -0.226787
rhand -23.9664 -2.23367
rfingers 7.12502
rthumb 2.50982 -32.1987
lclavicle 6.04305e-014 6.67916e-014
lhumerus -11.4822 -19.2027 90.2133
lradius 31.4212
lwrist 19.0531
lhand -12.5571 -8.80496
lfingers 7.12502
lthumb 13.5201 20.7361
rfemur -14.5448 -5.08547 25.2814
rtibia 37.1062
rfoot -4.93984 -6.31054
rtoes 2.80182
lfemur -15.4739 4.29084 -16.9886
ltibia 34.6041
lfoot -6.48548 -8.02485
ltoes -22.8616
